<svg xmlns="http://www.w3.org/2000/svg" width="41.936" height="27.543" viewBox="0 0 41.936 27.543">
  <g id="console" transform="translate(0 -55.109)">
    <g id="Group_14" data-name="Group 14" transform="translate(0 55.109)">
      <g id="Group_13" data-name="Group 13" transform="translate(0 0)">
        <path id="Path_5" data-name="Path 5" d="M41.914,74.158a39.145,39.145,0,0,0-1.149-7.574,29.069,29.069,0,0,0-2.35-6.372c-3.656-6.425-7.626-5.432-12.379-4.179a34.023,34.023,0,0,1-4.805.94h-.522a34.023,34.023,0,0,1-4.805-.94c-4.753-1.2-8.723-2.246-12.379,4.231a26.628,26.628,0,0,0-2.35,6.372A39.145,39.145,0,0,0,.023,74.21a14.232,14.232,0,0,0,.731,5.955,3.959,3.959,0,0,0,2.507,2.35A5.107,5.107,0,0,0,6.6,82.149,24.551,24.551,0,0,0,13.29,77.4c1.619-1.567,4.649-2.35,7.678-2.35s6.059.783,7.678,2.35a24.551,24.551,0,0,0,6.686,4.753,5.464,5.464,0,0,0,3.343.366,3.9,3.9,0,0,0,2.507-2.4A13.966,13.966,0,0,0,41.914,74.158Zm-2.507,5.223a2.071,2.071,0,0,1-1.254,1.306,3.607,3.607,0,0,1-2.142-.261,21.3,21.3,0,0,1-6.059-4.335c-1.985-1.985-5.484-2.977-8.984-2.977s-7,.992-9.036,2.873a21.7,21.7,0,0,1-6.059,4.335,3.24,3.24,0,0,1-2.142.261,2.071,2.071,0,0,1-1.254-1.306,12.351,12.351,0,0,1-.522-5.014,36.029,36.029,0,0,1,1.1-7.208,24.923,24.923,0,0,1,2.194-5.9c2.873-5.171,6.216-4.335,10.185-3.291a30.641,30.641,0,0,0,5.119.992h.783a30.262,30.262,0,0,0,5.171-.992c3.97-.992,7.313-1.88,10.185,3.291a24.085,24.085,0,0,1,2.194,5.9,39.534,39.534,0,0,1,1.1,7.208A12.086,12.086,0,0,1,39.406,79.381Z" transform="translate(0 -55.109)" fill="#fff"/>
      </g>
    </g>
    <g id="Group_16" data-name="Group 16" transform="translate(5.403 60.316)">
      <g id="Group_15" data-name="Group 15" transform="translate(0 0)">
        <path id="Path_6" data-name="Path 6" d="M52.133,98.637a3.174,3.174,0,0,0-1.88-.888,2.972,2.972,0,0,0-.836-1.828l-.052-.052a2.958,2.958,0,0,0-2.142-.888,3.084,3.084,0,0,0-2.142.888,3.036,3.036,0,0,0-.888,1.88,3.112,3.112,0,0,0-1.88.836l-.052.052a2.958,2.958,0,0,0-.888,2.142,3.084,3.084,0,0,0,.888,2.142,2.912,2.912,0,0,0,1.933.888,2.786,2.786,0,0,0,.888,1.88,2.958,2.958,0,0,0,2.142.888,3.084,3.084,0,0,0,2.142-.888,3.174,3.174,0,0,0,.888-1.88,2.786,2.786,0,0,0,1.88-.888,2.958,2.958,0,0,0,.888-2.142A3.084,3.084,0,0,0,52.133,98.637Zm-1.306,2.925a1.063,1.063,0,0,1-.783.313h-.731a.992.992,0,0,0-.992.992v.679a1.1,1.1,0,1,1-2.194,0v-.731a.992.992,0,0,0-.992-.992H44.4A1.071,1.071,0,0,1,43.619,100l.052-.052a1.248,1.248,0,0,1,.731-.261h.731a.992.992,0,0,0,.992-.992v-.731a1.108,1.108,0,0,1,1.88-.783l.052.052a1.248,1.248,0,0,1,.261.731v.731a.992.992,0,0,0,.992.992h.731a1.108,1.108,0,0,1,.783,1.88Z" transform="translate(-41.373 -94.981)" fill="#fff"/>
      </g>
    </g>
    <g id="Group_18" data-name="Group 18" transform="translate(28.229 60.577)">
      <g id="Group_17" data-name="Group 17" transform="translate(0 0)">
        <circle id="Ellipse_2" data-name="Ellipse 2" cx="1.828" cy="1.828" r="1.828" fill="#fff"/>
      </g>
    </g>
    <g id="Group_20" data-name="Group 20" transform="translate(28.229 67.994)">
      <g id="Group_19" data-name="Group 19" transform="translate(0 0)">
        <circle id="Ellipse_3" data-name="Ellipse 3" cx="1.828" cy="1.828" r="1.828" fill="#fff"/>
      </g>
    </g>
    <g id="Group_22" data-name="Group 22" transform="translate(24.52 64.286)">
      <g id="Group_21" data-name="Group 21" transform="translate(0 0)">
        <circle id="Ellipse_4" data-name="Ellipse 4" cx="1.828" cy="1.828" r="1.828" fill="#fff"/>
      </g>
    </g>
    <g id="Group_24" data-name="Group 24" transform="translate(31.937 64.286)">
      <g id="Group_23" data-name="Group 23" transform="translate(0 0)">
        <circle id="Ellipse_5" data-name="Ellipse 5" cx="1.828" cy="1.828" r="1.828" fill="#fff"/>
      </g>
    </g>
  </g>
</svg>
